<?xml version="1.0" encoding="UTF-8" standalone="no"?>
<!-- Created with Inkscape (http://www.inkscape.org/) -->

<svg
   xmlns:dc="http://purl.org/dc/elements/1.1/"
   xmlns:cc="http://creativecommons.org/ns#"
   xmlns:rdf="http://www.w3.org/1999/02/22-rdf-syntax-ns#"
   xmlns:svg="http://www.w3.org/2000/svg"
   xmlns="http://www.w3.org/2000/svg"
   xmlns:sodipodi="http://sodipodi.sourceforge.net/DTD/sodipodi-0.dtd"
   xmlns:inkscape="http://www.inkscape.org/namespaces/inkscape"
   width="254mm"
   height="253.51395mm"
   viewBox="0 0 900 898.27773"
   id="svg2"
   version="1.1"
   inkscape:version="0.91 r13725"
   sodipodi:docname="die.svg">
  <defs
     id="defs4" />
  <sodipodi:namedview
     id="base"
     pagecolor="#ffffff"
     bordercolor="#666666"
     borderopacity="1.0"
     inkscape:pageopacity="0.0"
     inkscape:pageshadow="2"
     inkscape:zoom="0.7"
     inkscape:cx="22.598713"
     inkscape:cy="402.03418"
     inkscape:document-units="px"
     inkscape:current-layer="layer1"
     showgrid="false"
     fit-margin-top="0"
     fit-margin-left="0"
     fit-margin-right="0"
     fit-margin-bottom="0"
     inkscape:window-width="1855"
     inkscape:window-height="1056"
     inkscape:window-x="65"
     inkscape:window-y="0"
     inkscape:window-maximized="1" />
  <metadata
     id="metadata7">
    <rdf:RDF>
      <cc:Work
         rdf:about="">
        <dc:format>image/svg+xml</dc:format>
        <dc:type
           rdf:resource="http://purl.org/dc/dcmitype/StillImage" />
        <dc:title />
      </cc:Work>
    </rdf:RDF>
  </metadata>
  <g
     inkscape:label="Capa 1"
     inkscape:groupmode="layer"
     id="layer1"
     transform="translate(70.79998,727.09173)">
    <rect
       style="color:#000000;display:inline;overflow:visible;visibility:visible;opacity:1;fill:#fff6d5;fill-opacity:1;fill-rule:evenodd;stroke:none;stroke-width:2.72225213px;stroke-linecap:butt;stroke-linejoin:miter;stroke-miterlimit:4;stroke-dasharray:none;stroke-dashoffset:0;stroke-opacity:1;marker:none;enable-background:accumulate"
       id="rect4216"
       width="898.27777"
       height="898.27777"
       x="-69.938866"
       y="-727.09174" />
    <rect
       style="color:#000000;display:inline;overflow:visible;visibility:visible;opacity:1;fill:#000000;fill-opacity:1;fill-rule:evenodd;stroke:none;stroke-width:1.11348557px;stroke-linecap:butt;stroke-linejoin:miter;stroke-miterlimit:4;stroke-dasharray:none;stroke-dashoffset:0;stroke-opacity:1;marker:none;enable-background:accumulate"
       id="rect4351"
       width="900"
       height="150"
       x="-70.79998"
       y="-129.81824" />
    <g
       id="g4218"
       transform="translate(0.47103384,-748.88506)"
       style="fill:#ff0000;stroke:none">
      <path
         d="M 20.70373,99.291008 A 14.775161,14.775161 0 0 1 5.9285693,114.06617 14.775161,14.775161 0 0 1 -8.8465915,99.291008 14.775161,14.775161 0 0 1 5.9285693,84.515847 14.775161,14.775161 0 0 1 20.70373,99.291008 Z m -91.446978,-77.272848 148.944443,0 0,148.94443 -148.944443,0 z"
         style="fill:#ff0000;fill-rule:evenodd;stroke:none;stroke-width:0.44967839px;stroke-linecap:butt;stroke-linejoin:miter;stroke-opacity:1"
         id="path4148"
         inkscape:connector-curvature="0" />
      <g
         style="fill:#ff0000;stroke:none;stroke-opacity:1"
         id="g4215">
        <path
           d="m 208.72899,96.490379 a 14.775161,14.775161 0 0 1 -14.77516,14.775161 14.775161,14.775161 0 0 1 -14.77516,-14.775161 14.775161,14.775161 0 0 1 14.77516,-14.77516 14.775161,14.775161 0 0 1 14.77516,14.77516 z m 0,44.224831 a 14.775161,14.775161 0 0 1 -14.77516,14.77516 14.775161,14.775161 0 0 1 -14.77516,-14.77516 14.775161,14.775161 0 0 1 14.77516,-14.77516 14.775161,14.775161 0 0 1 14.77516,14.77516 z m 0,-88.449673 A 14.775161,14.775161 0 0 1 193.95383,67.040698 14.775161,14.775161 0 0 1 179.17867,52.265537 14.775161,14.775161 0 0 1 193.95383,37.490376 14.775161,14.775161 0 0 1 208.72899,52.265537 Z M 128.2793,96.490379 A 14.775161,14.775161 0 0 1 113.50414,111.26554 14.775161,14.775161 0 0 1 98.728982,96.490379 14.775161,14.775161 0 0 1 113.50414,81.715219 14.775161,14.775161 0 0 1 128.2793,96.490379 Z m 0,44.224831 a 14.775161,14.775161 0 0 1 -14.77516,14.77516 14.775161,14.775161 0 0 1 -14.775158,-14.77516 14.775161,14.775161 0 0 1 14.775158,-14.77516 14.775161,14.775161 0 0 1 14.77516,14.77516 z m 0,-88.449673 A 14.775161,14.775161 0 0 1 113.50414,67.040698 14.775161,14.775161 0 0 1 98.728982,52.265537 14.775161,14.775161 0 0 1 113.50414,37.490376 14.775161,14.775161 0 0 1 128.2793,52.265537 Z M 79.25676,22.01816 l 148.94444,0 0,148.94443 -148.94444,0 z"
           style="fill:#ff0000;fill-rule:evenodd;stroke:none;stroke-width:0.44967839px;stroke-linecap:butt;stroke-linejoin:miter;stroke-opacity:1"
           id="red"
           inkscape:connector-curvature="0"
           inkscape:label="#circle4168" />
      </g>
      <g
         style="fill:#ff0000;stroke:none;stroke-opacity:1"
         id="g4223">
        <path
           d="m 808.72896,142.14378 a 14.775161,14.775161 0 0 1 -14.77516,14.77516 14.775161,14.775161 0 0 1 -14.77516,-14.77516 14.775161,14.775161 0 0 1 14.77516,-14.77516 14.775161,14.775161 0 0 1 14.77516,14.77516 z m 0,-88.449669 A 14.775161,14.775161 0 0 1 793.9538,68.469272 14.775161,14.775161 0 0 1 779.17864,53.694111 14.775161,14.775161 0 0 1 793.9538,38.91895 14.775161,14.775161 0 0 1 808.72896,53.694111 Z m -80.44965,88.449669 a 14.775161,14.775161 0 0 1 -14.77516,14.77516 14.775161,14.775161 0 0 1 -14.77516,-14.77516 14.775161,14.775161 0 0 1 14.77516,-14.77516 14.775161,14.775161 0 0 1 14.77516,14.77516 z m 0,-88.449669 A 14.775161,14.775161 0 0 1 713.50415,68.469272 14.775161,14.775161 0 0 1 698.72899,53.694111 14.775161,14.775161 0 0 1 713.50415,38.91895 14.775161,14.775161 0 0 1 728.27931,53.694111 Z m -49.02254,-31.675951 148.94445,0 0,148.94443 -148.94445,0 z"
           style="fill:#ff0000;fill-rule:evenodd;stroke:none;stroke-width:0.44967839px;stroke-linecap:butt;stroke-linejoin:miter;stroke-opacity:1"
           id="circle4184"
           inkscape:connector-curvature="0" />
      </g>
      <g
         style="fill:#ff0000;stroke:none;stroke-opacity:1"
         id="g4204">
        <path
           d="m 469.93269,95.061798 a 14.775161,14.775161 0 0 1 -14.77516,14.775162 14.775161,14.775161 0 0 1 -14.77516,-14.775162 14.775161,14.775161 0 0 1 14.77516,-14.775161 14.775161,14.775161 0 0 1 14.77516,14.775161 z m 40.22486,44.224842 a 14.775161,14.775161 0 0 1 -14.77516,14.77516 14.775161,14.775161 0 0 1 -14.77517,-14.77516 14.775161,14.775161 0 0 1 14.77517,-14.77516 14.775161,14.775161 0 0 1 14.77516,14.77516 z m 0,-88.449673 a 14.775161,14.775161 0 0 1 -14.77516,14.775161 14.775161,14.775161 0 0 1 -14.77517,-14.775161 14.775161,14.775161 0 0 1 14.77517,-14.77516 14.775161,14.775161 0 0 1 14.77516,14.77516 z m -80.44968,88.449673 a 14.775161,14.775161 0 0 1 -14.77516,14.77516 14.775161,14.775161 0 0 1 -14.77516,-14.77516 14.775161,14.775161 0 0 1 14.77516,-14.77516 14.775161,14.775161 0 0 1 14.77516,14.77516 z m 0,-88.449673 a 14.775161,14.775161 0 0 1 -14.77516,14.775161 14.775161,14.775161 0 0 1 -14.77516,-14.775161 14.775161,14.775161 0 0 1 14.77516,-14.77516 14.775161,14.775161 0 0 1 14.77516,14.77516 z m -50.4511,-28.818807 148.94445,0 0,148.94443 -148.94445,0 z"
           style="fill:#ff0000;fill-rule:evenodd;stroke:none;stroke-width:0.44967839px;stroke-linecap:butt;stroke-linejoin:miter;stroke-opacity:1"
           id="circle4190"
           inkscape:connector-curvature="0" />
      </g>
      <g
         style="fill:#ff0000;stroke:none;stroke-opacity:1"
         id="g4211">
        <path
           d="m 363.01469,140.71521 a 14.775161,14.775161 0 0 1 -14.77516,14.77516 14.775161,14.775161 0 0 1 -14.77516,-14.77516 14.775161,14.775161 0 0 1 14.77516,-14.77516 14.775161,14.775161 0 0 1 14.77516,14.77516 z M 282.56502,52.265537 A 14.775161,14.775161 0 0 1 267.78986,67.040698 14.775161,14.775161 0 0 1 253.0147,52.265537 14.775161,14.775161 0 0 1 267.78986,37.490376 14.775161,14.775161 0 0 1 282.56502,52.265537 Z m -53.30825,-30.247377 148.94445,0 0,148.94443 -148.94445,0 z"
           style="fill:#ff0000;fill-rule:evenodd;stroke:none;stroke-width:0.44967839px;stroke-linecap:butt;stroke-linejoin:miter;stroke-opacity:1"
           id="circle4192"
           inkscape:connector-curvature="0" />
      </g>
      <g
         style="fill:#ff0000;stroke:none;stroke-opacity:1"
         id="g4249">
        <path
           d="m 658.72896,140.71521 a 14.775161,14.775161 0 0 1 -14.77516,14.77516 14.775161,14.775161 0 0 1 -14.77516,-14.77516 14.775161,14.775161 0 0 1 14.77516,-14.77516 14.775161,14.775161 0 0 1 14.77516,14.77516 z M 578.27931,52.265537 a 14.775161,14.775161 0 0 1 -14.77516,14.775161 14.775161,14.775161 0 0 1 -14.77516,-14.775161 14.775161,14.775161 0 0 1 14.77516,-14.775161 14.775161,14.775161 0 0 1 14.77516,14.775161 z m 40.22485,44.224835 A 14.775161,14.775161 0 0 1 603.729,111.26553 14.775161,14.775161 0 0 1 588.95384,96.490372 14.775161,14.775161 0 0 1 603.729,81.715211 14.775161,14.775161 0 0 1 618.50416,96.490372 Z m -89.24739,-74.472212 148.94445,0 0,148.94443 -148.94445,0 z"
           style="fill:#ff0000;fill-rule:evenodd;stroke:none;stroke-width:0.44967839px;stroke-linecap:butt;stroke-linejoin:miter;stroke-opacity:1"
           id="circle4237"
           inkscape:connector-curvature="0" />
      </g>
    </g>
    <g
       style="fill:#008000;stroke:none"
       transform="translate(0.47103384,-599.27355)"
       id="g4231">
      <path
         inkscape:connector-curvature="0"
         id="path4233"
         style="fill:#008000;fill-rule:evenodd;stroke:none;stroke-width:0.44967839px;stroke-linecap:butt;stroke-linejoin:miter;stroke-opacity:1"
         d="M 20.70373,99.291008 A 14.775161,14.775161 0 0 1 5.9285693,114.06617 14.775161,14.775161 0 0 1 -8.8465915,99.291008 14.775161,14.775161 0 0 1 5.9285693,84.515847 14.775161,14.775161 0 0 1 20.70373,99.291008 Z m -91.446978,-77.272848 148.944443,0 0,148.94443 -148.944443,0 z" />
      <g
         id="g4235"
         style="fill:#008000;stroke:none;stroke-opacity:1">
        <path
           inkscape:connector-curvature="0"
           id="green"
           style="fill:#008000;fill-rule:evenodd;stroke:none;stroke-width:0.44967839px;stroke-linecap:butt;stroke-linejoin:miter;stroke-opacity:1"
           d="m 208.72899,96.490379 a 14.775161,14.775161 0 0 1 -14.77516,14.775161 14.775161,14.775161 0 0 1 -14.77516,-14.775161 14.775161,14.775161 0 0 1 14.77516,-14.77516 14.775161,14.775161 0 0 1 14.77516,14.77516 z m 0,44.224831 a 14.775161,14.775161 0 0 1 -14.77516,14.77516 14.775161,14.775161 0 0 1 -14.77516,-14.77516 14.775161,14.775161 0 0 1 14.77516,-14.77516 14.775161,14.775161 0 0 1 14.77516,14.77516 z m 0,-88.449673 A 14.775161,14.775161 0 0 1 193.95383,67.040698 14.775161,14.775161 0 0 1 179.17867,52.265537 14.775161,14.775161 0 0 1 193.95383,37.490376 14.775161,14.775161 0 0 1 208.72899,52.265537 Z M 128.2793,96.490379 A 14.775161,14.775161 0 0 1 113.50414,111.26554 14.775161,14.775161 0 0 1 98.728982,96.490379 14.775161,14.775161 0 0 1 113.50414,81.715219 14.775161,14.775161 0 0 1 128.2793,96.490379 Z m 0,44.224831 a 14.775161,14.775161 0 0 1 -14.77516,14.77516 14.775161,14.775161 0 0 1 -14.775158,-14.77516 14.775161,14.775161 0 0 1 14.775158,-14.77516 14.775161,14.775161 0 0 1 14.77516,14.77516 z m 0,-88.449673 A 14.775161,14.775161 0 0 1 113.50414,67.040698 14.775161,14.775161 0 0 1 98.728982,52.265537 14.775161,14.775161 0 0 1 113.50414,37.490376 14.775161,14.775161 0 0 1 128.2793,52.265537 Z M 79.25676,22.01816 l 148.94444,0 0,148.94443 -148.94444,0 z"
           inkscape:label="#path4237" />
      </g>
      <g
         id="g4239"
         style="fill:#008000;stroke:none;stroke-opacity:1">
        <path
           inkscape:connector-curvature="0"
           id="path4241"
           style="fill:#008000;fill-rule:evenodd;stroke:none;stroke-width:0.44967839px;stroke-linecap:butt;stroke-linejoin:miter;stroke-opacity:1"
           d="m 808.72896,142.14378 a 14.775161,14.775161 0 0 1 -14.77516,14.77516 14.775161,14.775161 0 0 1 -14.77516,-14.77516 14.775161,14.775161 0 0 1 14.77516,-14.77516 14.775161,14.775161 0 0 1 14.77516,14.77516 z m 0,-88.449669 A 14.775161,14.775161 0 0 1 793.9538,68.469272 14.775161,14.775161 0 0 1 779.17864,53.694111 14.775161,14.775161 0 0 1 793.9538,38.91895 14.775161,14.775161 0 0 1 808.72896,53.694111 Z m -80.44965,88.449669 a 14.775161,14.775161 0 0 1 -14.77516,14.77516 14.775161,14.775161 0 0 1 -14.77516,-14.77516 14.775161,14.775161 0 0 1 14.77516,-14.77516 14.775161,14.775161 0 0 1 14.77516,14.77516 z m 0,-88.449669 A 14.775161,14.775161 0 0 1 713.50415,68.469272 14.775161,14.775161 0 0 1 698.72899,53.694111 14.775161,14.775161 0 0 1 713.50415,38.91895 14.775161,14.775161 0 0 1 728.27931,53.694111 Z m -49.02254,-31.675951 148.94445,0 0,148.94443 -148.94445,0 z" />
      </g>
      <g
         id="g4243"
         style="fill:#008000;stroke:none;stroke-opacity:1">
        <path
           inkscape:connector-curvature="0"
           id="path4245"
           style="fill:#008000;fill-rule:evenodd;stroke:none;stroke-width:0.44967839px;stroke-linecap:butt;stroke-linejoin:miter;stroke-opacity:1"
           d="m 469.93269,95.061798 a 14.775161,14.775161 0 0 1 -14.77516,14.775162 14.775161,14.775161 0 0 1 -14.77516,-14.775162 14.775161,14.775161 0 0 1 14.77516,-14.775161 14.775161,14.775161 0 0 1 14.77516,14.775161 z m 40.22486,44.224842 a 14.775161,14.775161 0 0 1 -14.77516,14.77516 14.775161,14.775161 0 0 1 -14.77517,-14.77516 14.775161,14.775161 0 0 1 14.77517,-14.77516 14.775161,14.775161 0 0 1 14.77516,14.77516 z m 0,-88.449673 a 14.775161,14.775161 0 0 1 -14.77516,14.775161 14.775161,14.775161 0 0 1 -14.77517,-14.775161 14.775161,14.775161 0 0 1 14.77517,-14.77516 14.775161,14.775161 0 0 1 14.77516,14.77516 z m -80.44968,88.449673 a 14.775161,14.775161 0 0 1 -14.77516,14.77516 14.775161,14.775161 0 0 1 -14.77516,-14.77516 14.775161,14.775161 0 0 1 14.77516,-14.77516 14.775161,14.775161 0 0 1 14.77516,14.77516 z m 0,-88.449673 a 14.775161,14.775161 0 0 1 -14.77516,14.775161 14.775161,14.775161 0 0 1 -14.77516,-14.775161 14.775161,14.775161 0 0 1 14.77516,-14.77516 14.775161,14.775161 0 0 1 14.77516,14.77516 z m -50.4511,-28.818807 148.94445,0 0,148.94443 -148.94445,0 z" />
      </g>
      <g
         id="g4247"
         style="fill:#008000;stroke:none;stroke-opacity:1">
        <path
           inkscape:connector-curvature="0"
           id="path4249"
           style="fill:#008000;fill-rule:evenodd;stroke:none;stroke-width:0.44967839px;stroke-linecap:butt;stroke-linejoin:miter;stroke-opacity:1"
           d="m 363.01469,140.71521 a 14.775161,14.775161 0 0 1 -14.77516,14.77516 14.775161,14.775161 0 0 1 -14.77516,-14.77516 14.775161,14.775161 0 0 1 14.77516,-14.77516 14.775161,14.775161 0 0 1 14.77516,14.77516 z M 282.56502,52.265537 A 14.775161,14.775161 0 0 1 267.78986,67.040698 14.775161,14.775161 0 0 1 253.0147,52.265537 14.775161,14.775161 0 0 1 267.78986,37.490376 14.775161,14.775161 0 0 1 282.56502,52.265537 Z m -53.30825,-30.247377 148.94445,0 0,148.94443 -148.94445,0 z" />
      </g>
      <g
         id="g4251"
         style="fill:#008000;stroke:none;stroke-opacity:1">
        <path
           inkscape:connector-curvature="0"
           id="path4253"
           style="fill:#008000;fill-rule:evenodd;stroke:none;stroke-width:0.44967839px;stroke-linecap:butt;stroke-linejoin:miter;stroke-opacity:1"
           d="m 658.72896,140.71521 a 14.775161,14.775161 0 0 1 -14.77516,14.77516 14.775161,14.775161 0 0 1 -14.77516,-14.77516 14.775161,14.775161 0 0 1 14.77516,-14.77516 14.775161,14.775161 0 0 1 14.77516,14.77516 z M 578.27931,52.265537 a 14.775161,14.775161 0 0 1 -14.77516,14.775161 14.775161,14.775161 0 0 1 -14.77516,-14.775161 14.775161,14.775161 0 0 1 14.77516,-14.775161 14.775161,14.775161 0 0 1 14.77516,14.775161 z m 40.22485,44.224835 A 14.775161,14.775161 0 0 1 603.729,111.26553 14.775161,14.775161 0 0 1 588.95384,96.490372 14.775161,14.775161 0 0 1 603.729,81.715211 14.775161,14.775161 0 0 1 618.50416,96.490372 Z m -89.24739,-74.472212 148.94445,0 0,148.94443 -148.94445,0 z" />
      </g>
    </g>
    <g
       id="g4255"
       transform="translate(0.47103384,-449.27356)"
       style="fill:#0000ff;stroke:none">
      <path
         d="M 20.70373,99.291008 A 14.775161,14.775161 0 0 1 5.9285693,114.06617 14.775161,14.775161 0 0 1 -8.8465915,99.291008 14.775161,14.775161 0 0 1 5.9285693,84.515847 14.775161,14.775161 0 0 1 20.70373,99.291008 Z m -91.446978,-77.272848 148.944443,0 0,148.94443 -148.944443,0 z"
         style="fill:#0000ff;fill-rule:evenodd;stroke:none;stroke-width:0.44967839px;stroke-linecap:butt;stroke-linejoin:miter;stroke-opacity:1"
         id="path4257"
         inkscape:connector-curvature="0" />
      <g
         style="fill:#0000ff;stroke:none;stroke-opacity:1"
         id="g4259">
        <path
           d="m 208.72899,96.490379 a 14.775161,14.775161 0 0 1 -14.77516,14.775161 14.775161,14.775161 0 0 1 -14.77516,-14.775161 14.775161,14.775161 0 0 1 14.77516,-14.77516 14.775161,14.775161 0 0 1 14.77516,14.77516 z m 0,44.224831 a 14.775161,14.775161 0 0 1 -14.77516,14.77516 14.775161,14.775161 0 0 1 -14.77516,-14.77516 14.775161,14.775161 0 0 1 14.77516,-14.77516 14.775161,14.775161 0 0 1 14.77516,14.77516 z m 0,-88.449673 A 14.775161,14.775161 0 0 1 193.95383,67.040698 14.775161,14.775161 0 0 1 179.17867,52.265537 14.775161,14.775161 0 0 1 193.95383,37.490376 14.775161,14.775161 0 0 1 208.72899,52.265537 Z M 128.2793,96.490379 A 14.775161,14.775161 0 0 1 113.50414,111.26554 14.775161,14.775161 0 0 1 98.728982,96.490379 14.775161,14.775161 0 0 1 113.50414,81.715219 14.775161,14.775161 0 0 1 128.2793,96.490379 Z m 0,44.224831 a 14.775161,14.775161 0 0 1 -14.77516,14.77516 14.775161,14.775161 0 0 1 -14.775158,-14.77516 14.775161,14.775161 0 0 1 14.775158,-14.77516 14.775161,14.775161 0 0 1 14.77516,14.77516 z m 0,-88.449673 A 14.775161,14.775161 0 0 1 113.50414,67.040698 14.775161,14.775161 0 0 1 98.728982,52.265537 14.775161,14.775161 0 0 1 113.50414,37.490376 14.775161,14.775161 0 0 1 128.2793,52.265537 Z M 79.25676,22.01816 l 148.94444,0 0,148.94443 -148.94444,0 z"
           style="fill:#0000ff;fill-rule:evenodd;stroke:none;stroke-width:0.44967839px;stroke-linecap:butt;stroke-linejoin:miter;stroke-opacity:1"
           id="blue"
           inkscape:connector-curvature="0"
           inkscape:label="#path4261" />
      </g>
      <g
         style="fill:#0000ff;stroke:none;stroke-opacity:1"
         id="g4263">
        <path
           d="m 808.72896,142.14378 a 14.775161,14.775161 0 0 1 -14.77516,14.77516 14.775161,14.775161 0 0 1 -14.77516,-14.77516 14.775161,14.775161 0 0 1 14.77516,-14.77516 14.775161,14.775161 0 0 1 14.77516,14.77516 z m 0,-88.449669 A 14.775161,14.775161 0 0 1 793.9538,68.469272 14.775161,14.775161 0 0 1 779.17864,53.694111 14.775161,14.775161 0 0 1 793.9538,38.91895 14.775161,14.775161 0 0 1 808.72896,53.694111 Z m -80.44965,88.449669 a 14.775161,14.775161 0 0 1 -14.77516,14.77516 14.775161,14.775161 0 0 1 -14.77516,-14.77516 14.775161,14.775161 0 0 1 14.77516,-14.77516 14.775161,14.775161 0 0 1 14.77516,14.77516 z m 0,-88.449669 A 14.775161,14.775161 0 0 1 713.50415,68.469272 14.775161,14.775161 0 0 1 698.72899,53.694111 14.775161,14.775161 0 0 1 713.50415,38.91895 14.775161,14.775161 0 0 1 728.27931,53.694111 Z m -49.02254,-31.675951 148.94445,0 0,148.94443 -148.94445,0 z"
           style="fill:#0000ff;fill-rule:evenodd;stroke:none;stroke-width:0.44967839px;stroke-linecap:butt;stroke-linejoin:miter;stroke-opacity:1"
           id="path4265"
           inkscape:connector-curvature="0" />
      </g>
      <g
         style="fill:#0000ff;stroke:none;stroke-opacity:1"
         id="g4267">
        <path
           d="m 469.93269,95.061798 a 14.775161,14.775161 0 0 1 -14.77516,14.775162 14.775161,14.775161 0 0 1 -14.77516,-14.775162 14.775161,14.775161 0 0 1 14.77516,-14.775161 14.775161,14.775161 0 0 1 14.77516,14.775161 z m 40.22486,44.224842 a 14.775161,14.775161 0 0 1 -14.77516,14.77516 14.775161,14.775161 0 0 1 -14.77517,-14.77516 14.775161,14.775161 0 0 1 14.77517,-14.77516 14.775161,14.775161 0 0 1 14.77516,14.77516 z m 0,-88.449673 a 14.775161,14.775161 0 0 1 -14.77516,14.775161 14.775161,14.775161 0 0 1 -14.77517,-14.775161 14.775161,14.775161 0 0 1 14.77517,-14.77516 14.775161,14.775161 0 0 1 14.77516,14.77516 z m -80.44968,88.449673 a 14.775161,14.775161 0 0 1 -14.77516,14.77516 14.775161,14.775161 0 0 1 -14.77516,-14.77516 14.775161,14.775161 0 0 1 14.77516,-14.77516 14.775161,14.775161 0 0 1 14.77516,14.77516 z m 0,-88.449673 a 14.775161,14.775161 0 0 1 -14.77516,14.775161 14.775161,14.775161 0 0 1 -14.77516,-14.775161 14.775161,14.775161 0 0 1 14.77516,-14.77516 14.775161,14.775161 0 0 1 14.77516,14.77516 z m -50.4511,-28.818807 148.94445,0 0,148.94443 -148.94445,0 z"
           style="fill:#0000ff;fill-rule:evenodd;stroke:none;stroke-width:0.44967839px;stroke-linecap:butt;stroke-linejoin:miter;stroke-opacity:1"
           id="path4269"
           inkscape:connector-curvature="0" />
      </g>
      <g
         style="fill:#0000ff;stroke:none;stroke-opacity:1"
         id="g4271">
        <path
           d="m 363.01469,140.71521 a 14.775161,14.775161 0 0 1 -14.77516,14.77516 14.775161,14.775161 0 0 1 -14.77516,-14.77516 14.775161,14.775161 0 0 1 14.77516,-14.77516 14.775161,14.775161 0 0 1 14.77516,14.77516 z M 282.56502,52.265537 A 14.775161,14.775161 0 0 1 267.78986,67.040698 14.775161,14.775161 0 0 1 253.0147,52.265537 14.775161,14.775161 0 0 1 267.78986,37.490376 14.775161,14.775161 0 0 1 282.56502,52.265537 Z m -53.30825,-30.247377 148.94445,0 0,148.94443 -148.94445,0 z"
           style="fill:#0000ff;fill-rule:evenodd;stroke:none;stroke-width:0.44967839px;stroke-linecap:butt;stroke-linejoin:miter;stroke-opacity:1"
           id="path4273"
           inkscape:connector-curvature="0" />
      </g>
      <g
         style="fill:#0000ff;stroke:none;stroke-opacity:1"
         id="g4275">
        <path
           d="m 658.72896,140.71521 a 14.775161,14.775161 0 0 1 -14.77516,14.77516 14.775161,14.775161 0 0 1 -14.77516,-14.77516 14.775161,14.775161 0 0 1 14.77516,-14.77516 14.775161,14.775161 0 0 1 14.77516,14.77516 z M 578.27931,52.265537 a 14.775161,14.775161 0 0 1 -14.77516,14.775161 14.775161,14.775161 0 0 1 -14.77516,-14.775161 14.775161,14.775161 0 0 1 14.77516,-14.775161 14.775161,14.775161 0 0 1 14.77516,14.775161 z m 40.22485,44.224835 A 14.775161,14.775161 0 0 1 603.729,111.26553 14.775161,14.775161 0 0 1 588.95384,96.490372 14.775161,14.775161 0 0 1 603.729,81.715211 14.775161,14.775161 0 0 1 618.50416,96.490372 Z m -89.24739,-74.472212 148.94445,0 0,148.94443 -148.94445,0 z"
           style="fill:#0000ff;fill-rule:evenodd;stroke:none;stroke-width:0.44967839px;stroke-linecap:butt;stroke-linejoin:miter;stroke-opacity:1"
           id="path4277"
           inkscape:connector-curvature="0" />
      </g>
    </g>
    <g
       style="fill:#000000;stroke:none"
       transform="translate(0.47103384,-299.27357)"
       id="g4279">
      <path
         inkscape:connector-curvature="0"
         id="path4281"
         style="fill:#000000;fill-rule:evenodd;stroke:none;stroke-width:0.44967839px;stroke-linecap:butt;stroke-linejoin:miter;stroke-opacity:1"
         d="M 20.70373,99.291008 A 14.775161,14.775161 0 0 1 5.9285693,114.06617 14.775161,14.775161 0 0 1 -8.8465915,99.291008 14.775161,14.775161 0 0 1 5.9285693,84.515847 14.775161,14.775161 0 0 1 20.70373,99.291008 Z m -91.446978,-77.272848 148.944443,0 0,148.94443 -148.944443,0 z" />
      <g
         id="g4283"
         style="fill:#000000;stroke:none;stroke-opacity:1">
        <path
           inkscape:connector-curvature="0"
           id="black"
           style="fill:#000000;fill-rule:evenodd;stroke:none;stroke-width:0.44967839px;stroke-linecap:butt;stroke-linejoin:miter;stroke-opacity:1"
           d="m 208.72899,96.490379 a 14.775161,14.775161 0 0 1 -14.77516,14.775161 14.775161,14.775161 0 0 1 -14.77516,-14.775161 14.775161,14.775161 0 0 1 14.77516,-14.77516 14.775161,14.775161 0 0 1 14.77516,14.77516 z m 0,44.224831 a 14.775161,14.775161 0 0 1 -14.77516,14.77516 14.775161,14.775161 0 0 1 -14.77516,-14.77516 14.775161,14.775161 0 0 1 14.77516,-14.77516 14.775161,14.775161 0 0 1 14.77516,14.77516 z m 0,-88.449673 A 14.775161,14.775161 0 0 1 193.95383,67.040698 14.775161,14.775161 0 0 1 179.17867,52.265537 14.775161,14.775161 0 0 1 193.95383,37.490376 14.775161,14.775161 0 0 1 208.72899,52.265537 Z M 128.2793,96.490379 A 14.775161,14.775161 0 0 1 113.50414,111.26554 14.775161,14.775161 0 0 1 98.728982,96.490379 14.775161,14.775161 0 0 1 113.50414,81.715219 14.775161,14.775161 0 0 1 128.2793,96.490379 Z m 0,44.224831 a 14.775161,14.775161 0 0 1 -14.77516,14.77516 14.775161,14.775161 0 0 1 -14.775158,-14.77516 14.775161,14.775161 0 0 1 14.775158,-14.77516 14.775161,14.775161 0 0 1 14.77516,14.77516 z m 0,-88.449673 A 14.775161,14.775161 0 0 1 113.50414,67.040698 14.775161,14.775161 0 0 1 98.728982,52.265537 14.775161,14.775161 0 0 1 113.50414,37.490376 14.775161,14.775161 0 0 1 128.2793,52.265537 Z M 79.25676,22.01816 l 148.94444,0 0,148.94443 -148.94444,0 z"
           inkscape:label="#path4285" />
      </g>
      <g
         id="g4287"
         style="fill:#000000;stroke:none;stroke-opacity:1">
        <path
           inkscape:connector-curvature="0"
           id="path4289"
           style="fill:#000000;fill-rule:evenodd;stroke:none;stroke-width:0.44967839px;stroke-linecap:butt;stroke-linejoin:miter;stroke-opacity:1"
           d="m 808.72896,142.14378 a 14.775161,14.775161 0 0 1 -14.77516,14.77516 14.775161,14.775161 0 0 1 -14.77516,-14.77516 14.775161,14.775161 0 0 1 14.77516,-14.77516 14.775161,14.775161 0 0 1 14.77516,14.77516 z m 0,-88.449669 A 14.775161,14.775161 0 0 1 793.9538,68.469272 14.775161,14.775161 0 0 1 779.17864,53.694111 14.775161,14.775161 0 0 1 793.9538,38.91895 14.775161,14.775161 0 0 1 808.72896,53.694111 Z m -80.44965,88.449669 a 14.775161,14.775161 0 0 1 -14.77516,14.77516 14.775161,14.775161 0 0 1 -14.77516,-14.77516 14.775161,14.775161 0 0 1 14.77516,-14.77516 14.775161,14.775161 0 0 1 14.77516,14.77516 z m 0,-88.449669 A 14.775161,14.775161 0 0 1 713.50415,68.469272 14.775161,14.775161 0 0 1 698.72899,53.694111 14.775161,14.775161 0 0 1 713.50415,38.91895 14.775161,14.775161 0 0 1 728.27931,53.694111 Z m -49.02254,-31.675951 148.94445,0 0,148.94443 -148.94445,0 z" />
      </g>
      <g
         id="g4291"
         style="fill:#000000;stroke:none;stroke-opacity:1">
        <path
           inkscape:connector-curvature="0"
           id="path4293"
           style="fill:#000000;fill-rule:evenodd;stroke:none;stroke-width:0.44967839px;stroke-linecap:butt;stroke-linejoin:miter;stroke-opacity:1"
           d="m 469.93269,95.061798 a 14.775161,14.775161 0 0 1 -14.77516,14.775162 14.775161,14.775161 0 0 1 -14.77516,-14.775162 14.775161,14.775161 0 0 1 14.77516,-14.775161 14.775161,14.775161 0 0 1 14.77516,14.775161 z m 40.22486,44.224842 a 14.775161,14.775161 0 0 1 -14.77516,14.77516 14.775161,14.775161 0 0 1 -14.77517,-14.77516 14.775161,14.775161 0 0 1 14.77517,-14.77516 14.775161,14.775161 0 0 1 14.77516,14.77516 z m 0,-88.449673 a 14.775161,14.775161 0 0 1 -14.77516,14.775161 14.775161,14.775161 0 0 1 -14.77517,-14.775161 14.775161,14.775161 0 0 1 14.77517,-14.77516 14.775161,14.775161 0 0 1 14.77516,14.77516 z m -80.44968,88.449673 a 14.775161,14.775161 0 0 1 -14.77516,14.77516 14.775161,14.775161 0 0 1 -14.77516,-14.77516 14.775161,14.775161 0 0 1 14.77516,-14.77516 14.775161,14.775161 0 0 1 14.77516,14.77516 z m 0,-88.449673 a 14.775161,14.775161 0 0 1 -14.77516,14.775161 14.775161,14.775161 0 0 1 -14.77516,-14.775161 14.775161,14.775161 0 0 1 14.77516,-14.77516 14.775161,14.775161 0 0 1 14.77516,14.77516 z m -50.4511,-28.818807 148.94445,0 0,148.94443 -148.94445,0 z" />
      </g>
      <g
         id="g4295"
         style="fill:#000000;stroke:none;stroke-opacity:1">
        <path
           inkscape:connector-curvature="0"
           id="path4297"
           style="fill:#000000;fill-rule:evenodd;stroke:none;stroke-width:0.44967839px;stroke-linecap:butt;stroke-linejoin:miter;stroke-opacity:1"
           d="m 363.01469,140.71521 a 14.775161,14.775161 0 0 1 -14.77516,14.77516 14.775161,14.775161 0 0 1 -14.77516,-14.77516 14.775161,14.775161 0 0 1 14.77516,-14.77516 14.775161,14.775161 0 0 1 14.77516,14.77516 z M 282.56502,52.265537 A 14.775161,14.775161 0 0 1 267.78986,67.040698 14.775161,14.775161 0 0 1 253.0147,52.265537 14.775161,14.775161 0 0 1 267.78986,37.490376 14.775161,14.775161 0 0 1 282.56502,52.265537 Z m -53.30825,-30.247377 148.94445,0 0,148.94443 -148.94445,0 z" />
      </g>
      <g
         id="g4299"
         style="fill:#000000;stroke:none;stroke-opacity:1">
        <path
           inkscape:connector-curvature="0"
           id="path4301"
           style="fill:#000000;fill-rule:evenodd;stroke:none;stroke-width:0.44967839px;stroke-linecap:butt;stroke-linejoin:miter;stroke-opacity:1"
           d="m 658.72896,140.71521 a 14.775161,14.775161 0 0 1 -14.77516,14.77516 14.775161,14.775161 0 0 1 -14.77516,-14.77516 14.775161,14.775161 0 0 1 14.77516,-14.77516 14.775161,14.775161 0 0 1 14.77516,14.77516 z M 578.27931,52.265537 a 14.775161,14.775161 0 0 1 -14.77516,14.775161 14.775161,14.775161 0 0 1 -14.77516,-14.775161 14.775161,14.775161 0 0 1 14.77516,-14.775161 14.775161,14.775161 0 0 1 14.77516,14.775161 z m 40.22485,44.224835 A 14.775161,14.775161 0 0 1 603.729,111.26553 14.775161,14.775161 0 0 1 588.95384,96.490372 14.775161,14.775161 0 0 1 603.729,81.715211 14.775161,14.775161 0 0 1 618.50416,96.490372 Z m -89.24739,-74.472212 148.94445,0 0,148.94443 -148.94445,0 z" />
      </g>
    </g>
    <g
       style="fill:#ffffff;stroke:none"
       transform="translate(0.47103384,-151.30862)"
       id="g4327">
      <path
         inkscape:connector-curvature="0"
         id="path4329"
         style="fill:#ffffff;fill-rule:evenodd;stroke:none;stroke-width:0.44967839px;stroke-linecap:butt;stroke-linejoin:miter;stroke-opacity:1"
         d="M 20.70373,99.291008 A 14.775161,14.775161 0 0 1 5.9285693,114.06617 14.775161,14.775161 0 0 1 -8.8465915,99.291008 14.775161,14.775161 0 0 1 5.9285693,84.515847 14.775161,14.775161 0 0 1 20.70373,99.291008 Z m -91.446978,-77.272848 148.944443,0 0,148.94443 -148.944443,0 z" />
      <g
         id="g4331"
         style="fill:#ffffff;stroke:none;stroke-opacity:1">
        <path
           inkscape:connector-curvature="0"
           id="white"
           style="fill:#ffffff;fill-rule:evenodd;stroke:none;stroke-width:0.44967839px;stroke-linecap:butt;stroke-linejoin:miter;stroke-opacity:1"
           d="m 208.72899,96.490379 a 14.775161,14.775161 0 0 1 -14.77516,14.775161 14.775161,14.775161 0 0 1 -14.77516,-14.775161 14.775161,14.775161 0 0 1 14.77516,-14.77516 14.775161,14.775161 0 0 1 14.77516,14.77516 z m 0,44.224831 a 14.775161,14.775161 0 0 1 -14.77516,14.77516 14.775161,14.775161 0 0 1 -14.77516,-14.77516 14.775161,14.775161 0 0 1 14.77516,-14.77516 14.775161,14.775161 0 0 1 14.77516,14.77516 z m 0,-88.449673 A 14.775161,14.775161 0 0 1 193.95383,67.040698 14.775161,14.775161 0 0 1 179.17867,52.265537 14.775161,14.775161 0 0 1 193.95383,37.490376 14.775161,14.775161 0 0 1 208.72899,52.265537 Z M 128.2793,96.490379 A 14.775161,14.775161 0 0 1 113.50414,111.26554 14.775161,14.775161 0 0 1 98.728982,96.490379 14.775161,14.775161 0 0 1 113.50414,81.715219 14.775161,14.775161 0 0 1 128.2793,96.490379 Z m 0,44.224831 a 14.775161,14.775161 0 0 1 -14.77516,14.77516 14.775161,14.775161 0 0 1 -14.775158,-14.77516 14.775161,14.775161 0 0 1 14.775158,-14.77516 14.775161,14.775161 0 0 1 14.77516,14.77516 z m 0,-88.449673 A 14.775161,14.775161 0 0 1 113.50414,67.040698 14.775161,14.775161 0 0 1 98.728982,52.265537 14.775161,14.775161 0 0 1 113.50414,37.490376 14.775161,14.775161 0 0 1 128.2793,52.265537 Z M 79.25676,22.01816 l 148.94444,0 0,148.94443 -148.94444,0 z"
           inkscape:label="#path4333" />
      </g>
      <g
         id="g4335"
         style="fill:#ffffff;stroke:none;stroke-opacity:1">
        <path
           inkscape:connector-curvature="0"
           id="path4337"
           style="fill:#ffffff;fill-rule:evenodd;stroke:none;stroke-width:0.44967839px;stroke-linecap:butt;stroke-linejoin:miter;stroke-opacity:1"
           d="m 808.72896,142.14378 a 14.775161,14.775161 0 0 1 -14.77516,14.77516 14.775161,14.775161 0 0 1 -14.77516,-14.77516 14.775161,14.775161 0 0 1 14.77516,-14.77516 14.775161,14.775161 0 0 1 14.77516,14.77516 z m 0,-88.449669 A 14.775161,14.775161 0 0 1 793.9538,68.469272 14.775161,14.775161 0 0 1 779.17864,53.694111 14.775161,14.775161 0 0 1 793.9538,38.91895 14.775161,14.775161 0 0 1 808.72896,53.694111 Z m -80.44965,88.449669 a 14.775161,14.775161 0 0 1 -14.77516,14.77516 14.775161,14.775161 0 0 1 -14.77516,-14.77516 14.775161,14.775161 0 0 1 14.77516,-14.77516 14.775161,14.775161 0 0 1 14.77516,14.77516 z m 0,-88.449669 A 14.775161,14.775161 0 0 1 713.50415,68.469272 14.775161,14.775161 0 0 1 698.72899,53.694111 14.775161,14.775161 0 0 1 713.50415,38.91895 14.775161,14.775161 0 0 1 728.27931,53.694111 Z m -49.02254,-31.675951 148.94445,0 0,148.94443 -148.94445,0 z" />
      </g>
      <g
         id="g4339"
         style="fill:#ffffff;stroke:none;stroke-opacity:1">
        <path
           inkscape:connector-curvature="0"
           id="path4341"
           style="fill:#ffffff;fill-rule:evenodd;stroke:none;stroke-width:0.44967839px;stroke-linecap:butt;stroke-linejoin:miter;stroke-opacity:1"
           d="m 469.93269,95.061798 a 14.775161,14.775161 0 0 1 -14.77516,14.775162 14.775161,14.775161 0 0 1 -14.77516,-14.775162 14.775161,14.775161 0 0 1 14.77516,-14.775161 14.775161,14.775161 0 0 1 14.77516,14.775161 z m 40.22486,44.224842 a 14.775161,14.775161 0 0 1 -14.77516,14.77516 14.775161,14.775161 0 0 1 -14.77517,-14.77516 14.775161,14.775161 0 0 1 14.77517,-14.77516 14.775161,14.775161 0 0 1 14.77516,14.77516 z m 0,-88.449673 a 14.775161,14.775161 0 0 1 -14.77516,14.775161 14.775161,14.775161 0 0 1 -14.77517,-14.775161 14.775161,14.775161 0 0 1 14.77517,-14.77516 14.775161,14.775161 0 0 1 14.77516,14.77516 z m -80.44968,88.449673 a 14.775161,14.775161 0 0 1 -14.77516,14.77516 14.775161,14.775161 0 0 1 -14.77516,-14.77516 14.775161,14.775161 0 0 1 14.77516,-14.77516 14.775161,14.775161 0 0 1 14.77516,14.77516 z m 0,-88.449673 a 14.775161,14.775161 0 0 1 -14.77516,14.775161 14.775161,14.775161 0 0 1 -14.77516,-14.775161 14.775161,14.775161 0 0 1 14.77516,-14.77516 14.775161,14.775161 0 0 1 14.77516,14.77516 z m -50.4511,-28.818807 148.94445,0 0,148.94443 -148.94445,0 z" />
      </g>
      <g
         id="g4343"
         style="fill:#ffffff;stroke:none;stroke-opacity:1">
        <path
           inkscape:connector-curvature="0"
           id="path4345"
           style="fill:#ffffff;fill-rule:evenodd;stroke:none;stroke-width:0.44967839px;stroke-linecap:butt;stroke-linejoin:miter;stroke-opacity:1"
           d="m 363.01469,140.71521 a 14.775161,14.775161 0 0 1 -14.77516,14.77516 14.775161,14.775161 0 0 1 -14.77516,-14.77516 14.775161,14.775161 0 0 1 14.77516,-14.77516 14.775161,14.775161 0 0 1 14.77516,14.77516 z M 282.56502,52.265537 A 14.775161,14.775161 0 0 1 267.78986,67.040698 14.775161,14.775161 0 0 1 253.0147,52.265537 14.775161,14.775161 0 0 1 267.78986,37.490376 14.775161,14.775161 0 0 1 282.56502,52.265537 Z m -53.30825,-30.247377 148.94445,0 0,148.94443 -148.94445,0 z" />
      </g>
      <g
         id="g4347"
         style="fill:#ffffff;stroke:none;stroke-opacity:1">
        <path
           inkscape:connector-curvature="0"
           id="path4349"
           style="fill:#ffffff;fill-rule:evenodd;stroke:none;stroke-width:0.44967839px;stroke-linecap:butt;stroke-linejoin:miter;stroke-opacity:1"
           d="m 658.72896,140.71521 a 14.775161,14.775161 0 0 1 -14.77516,14.77516 14.775161,14.775161 0 0 1 -14.77516,-14.77516 14.775161,14.775161 0 0 1 14.77516,-14.77516 14.775161,14.775161 0 0 1 14.77516,14.77516 z M 578.27931,52.265537 a 14.775161,14.775161 0 0 1 -14.77516,14.775161 14.775161,14.775161 0 0 1 -14.77516,-14.775161 14.775161,14.775161 0 0 1 14.77516,-14.775161 14.775161,14.775161 0 0 1 14.77516,14.775161 z m 40.22485,44.224835 A 14.775161,14.775161 0 0 1 603.729,111.26553 14.775161,14.775161 0 0 1 588.95384,96.490372 14.775161,14.775161 0 0 1 603.729,81.715211 14.775161,14.775161 0 0 1 618.50416,96.490372 Z m -89.24739,-74.472212 148.94445,0 0,148.94443 -148.94445,0 z" />
      </g>
    </g>
    <g
       id="g4353"
       transform="translate(0.47103384,-1.9145116)"
       style="fill:#d45500;stroke:none">
      <path
         d="M 20.70373,99.291008 A 14.775161,14.775161 0 0 1 5.9285693,114.06617 14.775161,14.775161 0 0 1 -8.8465915,99.291008 14.775161,14.775161 0 0 1 5.9285693,84.515847 14.775161,14.775161 0 0 1 20.70373,99.291008 Z m -91.446978,-77.272848 148.944443,0 0,148.94443 -148.944443,0 z"
         style="fill:#d45500;fill-rule:evenodd;stroke:none;stroke-width:0.44967839px;stroke-linecap:butt;stroke-linejoin:miter;stroke-opacity:1"
         id="path4355"
         inkscape:connector-curvature="0" />
      <g
         style="fill:#d45500;stroke:none;stroke-opacity:1"
         id="g4357">
        <path
           d="m 208.72899,96.490379 a 14.775161,14.775161 0 0 1 -14.77516,14.775161 14.775161,14.775161 0 0 1 -14.77516,-14.775161 14.775161,14.775161 0 0 1 14.77516,-14.77516 14.775161,14.775161 0 0 1 14.77516,14.77516 z m 0,44.224831 a 14.775161,14.775161 0 0 1 -14.77516,14.77516 14.775161,14.775161 0 0 1 -14.77516,-14.77516 14.775161,14.775161 0 0 1 14.77516,-14.77516 14.775161,14.775161 0 0 1 14.77516,14.77516 z m 0,-88.449673 A 14.775161,14.775161 0 0 1 193.95383,67.040698 14.775161,14.775161 0 0 1 179.17867,52.265537 14.775161,14.775161 0 0 1 193.95383,37.490376 14.775161,14.775161 0 0 1 208.72899,52.265537 Z M 128.2793,96.490379 A 14.775161,14.775161 0 0 1 113.50414,111.26554 14.775161,14.775161 0 0 1 98.728982,96.490379 14.775161,14.775161 0 0 1 113.50414,81.715219 14.775161,14.775161 0 0 1 128.2793,96.490379 Z m 0,44.224831 a 14.775161,14.775161 0 0 1 -14.77516,14.77516 14.775161,14.775161 0 0 1 -14.775158,-14.77516 14.775161,14.775161 0 0 1 14.775158,-14.77516 14.775161,14.775161 0 0 1 14.77516,14.77516 z m 0,-88.449673 A 14.775161,14.775161 0 0 1 113.50414,67.040698 14.775161,14.775161 0 0 1 98.728982,52.265537 14.775161,14.775161 0 0 1 113.50414,37.490376 14.775161,14.775161 0 0 1 128.2793,52.265537 Z M 79.25676,22.01816 l 148.94444,0 0,148.94443 -148.94444,0 z"
           style="fill:#d45500;fill-rule:evenodd;stroke:none;stroke-width:0.44967839px;stroke-linecap:butt;stroke-linejoin:miter;stroke-opacity:1"
           id="orange"
           inkscape:connector-curvature="0"
           inkscape:label="#path4359" />
      </g>
      <g
         style="fill:#d45500;stroke:none;stroke-opacity:1"
         id="g4361">
        <path
           d="m 808.72896,142.14378 a 14.775161,14.775161 0 0 1 -14.77516,14.77516 14.775161,14.775161 0 0 1 -14.77516,-14.77516 14.775161,14.775161 0 0 1 14.77516,-14.77516 14.775161,14.775161 0 0 1 14.77516,14.77516 z m 0,-88.449669 A 14.775161,14.775161 0 0 1 793.9538,68.469272 14.775161,14.775161 0 0 1 779.17864,53.694111 14.775161,14.775161 0 0 1 793.9538,38.91895 14.775161,14.775161 0 0 1 808.72896,53.694111 Z m -80.44965,88.449669 a 14.775161,14.775161 0 0 1 -14.77516,14.77516 14.775161,14.775161 0 0 1 -14.77516,-14.77516 14.775161,14.775161 0 0 1 14.77516,-14.77516 14.775161,14.775161 0 0 1 14.77516,14.77516 z m 0,-88.449669 A 14.775161,14.775161 0 0 1 713.50415,68.469272 14.775161,14.775161 0 0 1 698.72899,53.694111 14.775161,14.775161 0 0 1 713.50415,38.91895 14.775161,14.775161 0 0 1 728.27931,53.694111 Z m -49.02254,-31.675951 148.94445,0 0,148.94443 -148.94445,0 z"
           style="fill:#d45500;fill-rule:evenodd;stroke:none;stroke-width:0.44967839px;stroke-linecap:butt;stroke-linejoin:miter;stroke-opacity:1"
           id="path4363"
           inkscape:connector-curvature="0" />
      </g>
      <g
         style="fill:#d45500;stroke:none;stroke-opacity:1"
         id="g4365">
        <path
           d="m 469.93269,95.061798 a 14.775161,14.775161 0 0 1 -14.77516,14.775162 14.775161,14.775161 0 0 1 -14.77516,-14.775162 14.775161,14.775161 0 0 1 14.77516,-14.775161 14.775161,14.775161 0 0 1 14.77516,14.775161 z m 40.22486,44.224842 a 14.775161,14.775161 0 0 1 -14.77516,14.77516 14.775161,14.775161 0 0 1 -14.77517,-14.77516 14.775161,14.775161 0 0 1 14.77517,-14.77516 14.775161,14.775161 0 0 1 14.77516,14.77516 z m 0,-88.449673 a 14.775161,14.775161 0 0 1 -14.77516,14.775161 14.775161,14.775161 0 0 1 -14.77517,-14.775161 14.775161,14.775161 0 0 1 14.77517,-14.77516 14.775161,14.775161 0 0 1 14.77516,14.77516 z m -80.44968,88.449673 a 14.775161,14.775161 0 0 1 -14.77516,14.77516 14.775161,14.775161 0 0 1 -14.77516,-14.77516 14.775161,14.775161 0 0 1 14.77516,-14.77516 14.775161,14.775161 0 0 1 14.77516,14.77516 z m 0,-88.449673 a 14.775161,14.775161 0 0 1 -14.77516,14.775161 14.775161,14.775161 0 0 1 -14.77516,-14.775161 14.775161,14.775161 0 0 1 14.77516,-14.77516 14.775161,14.775161 0 0 1 14.77516,14.77516 z m -50.4511,-28.818807 148.94445,0 0,148.94443 -148.94445,0 z"
           style="fill:#d45500;fill-rule:evenodd;stroke:none;stroke-width:0.44967839px;stroke-linecap:butt;stroke-linejoin:miter;stroke-opacity:1"
           id="path4367"
           inkscape:connector-curvature="0" />
      </g>
      <g
         style="fill:#d45500;stroke:none;stroke-opacity:1"
         id="g4369">
        <path
           d="m 363.01469,140.71521 a 14.775161,14.775161 0 0 1 -14.77516,14.77516 14.775161,14.775161 0 0 1 -14.77516,-14.77516 14.775161,14.775161 0 0 1 14.77516,-14.77516 14.775161,14.775161 0 0 1 14.77516,14.77516 z M 282.56502,52.265537 A 14.775161,14.775161 0 0 1 267.78986,67.040698 14.775161,14.775161 0 0 1 253.0147,52.265537 14.775161,14.775161 0 0 1 267.78986,37.490376 14.775161,14.775161 0 0 1 282.56502,52.265537 Z m -53.30825,-30.247377 148.94445,0 0,148.94443 -148.94445,0 z"
           style="fill:#d45500;fill-rule:evenodd;stroke:none;stroke-width:0.44967839px;stroke-linecap:butt;stroke-linejoin:miter;stroke-opacity:1"
           id="path4371"
           inkscape:connector-curvature="0" />
      </g>
      <g
         style="fill:#d45500;stroke:none;stroke-opacity:1"
         id="g4373">
        <path
           d="m 658.72896,140.71521 a 14.775161,14.775161 0 0 1 -14.77516,14.77516 14.775161,14.775161 0 0 1 -14.77516,-14.77516 14.775161,14.775161 0 0 1 14.77516,-14.77516 14.775161,14.775161 0 0 1 14.77516,14.77516 z M 578.27931,52.265537 a 14.775161,14.775161 0 0 1 -14.77516,14.775161 14.775161,14.775161 0 0 1 -14.77516,-14.775161 14.775161,14.775161 0 0 1 14.77516,-14.775161 14.775161,14.775161 0 0 1 14.77516,14.775161 z m 40.22485,44.224835 A 14.775161,14.775161 0 0 1 603.729,111.26553 14.775161,14.775161 0 0 1 588.95384,96.490372 14.775161,14.775161 0 0 1 603.729,81.715211 14.775161,14.775161 0 0 1 618.50416,96.490372 Z m -89.24739,-74.472212 148.94445,0 0,148.94443 -148.94445,0 z"
           style="fill:#d45500;fill-rule:evenodd;stroke:none;stroke-width:0.44967839px;stroke-linecap:butt;stroke-linejoin:miter;stroke-opacity:1"
           id="path4375"
           inkscape:connector-curvature="0" />
      </g>
    </g>
    <path
       style="color:#000000;display:inline;overflow:visible;visibility:visible;opacity:1;fill:#ff0000;fill-opacity:1;fill-rule:evenodd;stroke:none;stroke-width:0.77786428px;stroke-linecap:butt;stroke-linejoin:miter;stroke-miterlimit:4;stroke-dasharray:none;stroke-dashoffset:0;stroke-opacity:1;marker:none;enable-background:accumulate"
       d="m 69.31721,-726.8669 0,150 19.22265,0 0,-150 -19.22265,0 z m 150,0 0,150 19.22265,0 0,-150 -19.22265,0 z m 150,0 0,150 19.22265,0 0,-150 -19.22265,0 z m 150,0 0,150 19.22265,0 0,-150 -19.22265,0 z m 150,0 0,150 19.22265,0 0,-150 -19.22265,0 z"
       id="rect4479"
       inkscape:connector-curvature="0" />
    <path
       id="path4512"
       d="m 69.317213,-577.78317 0,149.99999 19.22265,0 0,-149.99999 -19.22265,0 z m 149.999997,0 0,149.99999 19.22265,0 0,-149.99999 -19.22265,0 z m 150,0 0,149.99999 19.22265,0 0,-149.99999 -19.22265,0 z m 150,0 0,149.99999 19.22265,0 0,-149.99999 -19.22265,0 z m 150,0 0,149.99999 19.22265,0 0,-149.99999 -19.22265,0 z"
       style="color:#000000;display:inline;overflow:visible;visibility:visible;opacity:1;fill:#008000;fill-opacity:1;fill-rule:evenodd;stroke:none;stroke-width:0.77786428px;stroke-linecap:butt;stroke-linejoin:miter;stroke-miterlimit:4;stroke-dasharray:none;stroke-dashoffset:0;stroke-opacity:1;marker:none;enable-background:accumulate"
       inkscape:connector-curvature="0" />
    <path
       id="path4514"
       d="m 69.317211,-427.78318 0,149.99999 19.22265,0 0,-149.99999 -19.22265,0 z m 149.999999,0 0,149.99999 19.22265,0 0,-149.99999 -19.22265,0 z m 150,0 0,149.99999 19.22265,0 0,-149.99999 -19.22265,0 z m 150,0 0,149.99999 19.22265,0 0,-149.99999 -19.22265,0 z m 150,0 0,149.99999 19.22265,0 0,-149.99999 -19.22265,0 z"
       style="color:#000000;display:inline;overflow:visible;visibility:visible;opacity:1;fill:#0000ff;fill-opacity:1;fill-rule:evenodd;stroke:none;stroke-width:0.77786428px;stroke-linecap:butt;stroke-linejoin:miter;stroke-miterlimit:4;stroke-dasharray:none;stroke-dashoffset:0;stroke-opacity:1;marker:none;enable-background:accumulate"
       inkscape:connector-curvature="0" />
    <path
       inkscape:connector-curvature="0"
       style="color:#000000;display:inline;overflow:visible;visibility:visible;opacity:1;fill:#000000;fill-opacity:1;fill-rule:evenodd;stroke:none;stroke-width:0.77786428px;stroke-linecap:butt;stroke-linejoin:miter;stroke-miterlimit:4;stroke-dasharray:none;stroke-dashoffset:0;stroke-opacity:1;marker:none;enable-background:accumulate"
       d="m 69.317209,-277.78319 0,149.99999 19.22265,0 0,-149.99999 -19.22265,0 z m 150.000011,0 0,149.99999 19.22265,0 0,-149.99999 -19.22265,0 z m 150,0 0,149.99999 19.22265,0 0,-149.99999 -19.22265,0 z m 150,0 0,149.99999 19.22265,0 0,-149.99999 -19.22265,0 z m 150,0 0,149.99999 19.22265,0 0,-149.99999 -19.22265,0 z"
       id="path4516" />
    <path
       inkscape:connector-curvature="0"
       style="color:#000000;display:inline;overflow:visible;visibility:visible;opacity:1;fill:#ffffff;fill-opacity:1;fill-rule:evenodd;stroke:none;stroke-width:0.77786428px;stroke-linecap:butt;stroke-linejoin:miter;stroke-miterlimit:4;stroke-dasharray:none;stroke-dashoffset:0;stroke-opacity:1;marker:none;enable-background:accumulate"
       d="m 69.317213,-129.81824 0,149.999992 19.22265,0 0,-149.999992 -19.22265,0 z m 149.999997,0 0,149.999992 19.22265,0 0,-149.999992 -19.22265,0 z m 150,0 0,149.999992 19.22265,0 0,-149.999992 -19.22265,0 z m 150,0 0,149.999992 19.22265,0 0,-149.999992 -19.22265,0 z m 150,0 0,149.999992 19.22265,0 0,-149.999992 -19.22265,0 z"
       id="path4518" />
    <path
       id="path4520"
       d="m 69.317205,19.575869 0,149.999991 19.22265,0 0,-149.999991 -19.22265,0 z m 150.000015,0 0,149.999991 19.22265,0 0,-149.999991 -19.22265,0 z m 150,0 0,149.999991 19.22265,0 0,-149.999991 -19.22265,0 z m 150,0 0,149.999991 19.22265,0 0,-149.999991 -19.22265,0 z m 150,0 0,149.999991 19.22265,0 0,-149.999991 -19.22265,0 z"
       style="color:#000000;display:inline;overflow:visible;visibility:visible;opacity:1;fill:#d45500;fill-opacity:1;fill-rule:evenodd;stroke:none;stroke-width:0.77786428px;stroke-linecap:butt;stroke-linejoin:miter;stroke-miterlimit:4;stroke-dasharray:none;stroke-dashoffset:0;stroke-opacity:1;marker:none;enable-background:accumulate"
       inkscape:connector-curvature="0" />
  </g>
</svg>
